<svg width="110" height="74" viewBox="0 0 110 74" fill="none" xmlns="http://www.w3.org/2000/svg">
<path d="M0.203051 0.0857092C3.6056 0.0534851 7.81851 0.240889 11.1435 0C12.0707 1.32185 13.296 3.50701 14.1697 4.93861L19.7567 13.98L40.1098 46.8912L45.3504 55.3487C46.5696 57.3442 47.7416 59.4454 49.1133 61.3313C51.3822 64.4507 54.1831 64.6884 57.6267 63.8405C56.3316 62.2399 54.3011 58.7177 53.1921 56.8859L46.0324 45.1413L18.1297 0.0397472C21.9365 0.0722355 25.7436 0.0788439 29.5505 0.0598264C35.5647 10.2265 42.1117 20.2563 48.2321 30.3711C50.424 33.9936 52.7647 37.5013 54.9132 41.1674C62.0154 30.1347 68.698 18.7469 75.673 7.62827C77.2054 5.18663 78.8924 2.55192 80.2557 0.0274708C83.9431 0.150292 87.9005 0.0937617 91.6037 0.0573114L78.3157 21.6731C72.2714 31.0956 66.6885 41.1648 60.462 50.4266C61.6234 52.1342 62.8858 54.3001 63.9882 56.083C65.2728 53.9197 66.7921 51.6535 68.137 49.4876L77.9814 33.6215L98.6756 0.0883531C101.755 -0.0685415 106.887 0.0244313 110 0.122821C109.744 0.571185 109.485 1.0173 109.223 1.46118C106.227 6.54057 102.928 11.6599 99.82 16.6901L80.7145 47.4894L72.8796 60.1849C71.4311 62.5304 69.457 65.9998 67.7215 67.9584C65.3016 70.7265 62.094 72.6771 58.5364 73.5461C54.3745 74.5603 49.9839 73.8591 46.3367 71.6007C41.1006 68.4153 38.8192 63.27 35.6869 58.1815L25.2186 41.1701L3.8582 6.54506C3.32862 5.67778 0.164379 0.903329 0 0.221999L0.203051 0.0857092Z" fill="#34D399"/>
</svg>
